# xmcd
#
# Track frame offsets: 
#        150
#        13709
#        27362
#        43588
#        61620
#        77358
#        98296
#        112855
#        130486
#        145333
#        162738
#        180215
#
# Disc length: 2630 seconds
#
# Revision: 4
# Processed by: cddbd v1.5.2PL0 Copyright (c) Steve Scherf et al.
# Submitted via: ExactAudioCopy v1.0b3
#
DISCID=890a440c
DTITLE=Blake Shelton - Startin' Fires
DYEAR=2008
DGENRE=Country
TTITLE0=Green
TTITLE1=Good at Startin' Fires
TTITLE2=She Wouldn't Be Gone
TTITLE3=I'll Just Hold On
TTITLE4=100 Miles
TTITLE5=Never Lovin' You
TTITLE6=Country Strong
TTITLE7=Home Sweet Home
TTITLE8=This Is Gonna Take All Night
TTITLE9=Here I Am
TTITLE10=I Don't Care
TTITLE11=Bare Skin Rug (Featuring Miranda Lambert)
EXTD=YEAR: 2008
EXTT0=
EXTT1=
EXTT2=
EXTT3=
EXTT4=
EXTT5=
EXTT6=
EXTT7=
EXTT8=
EXTT9=
EXTT10=
EXTT11=
PLAYORDER=
